<svg width="176" height="176" viewBox="0 0 176 176" fill="none" xmlns="http://www.w3.org/2000/svg">
<path d="M16.5444 114.636C16.7935 112.266 18.511 110.356 21.9461 106.536L29.5073 98.0826C31.3555 95.7425 32.6671 91.6666 32.6671 87.9985C32.6671 84.3333 31.3551 80.256 29.5071 77.9166L21.9461 69.4636C18.511 65.6433 16.7934 63.7332 16.5444 61.3629C16.2954 58.9927 17.5784 56.766 20.1444 52.3129L23.764 46.0311C26.5015 41.2804 27.8702 38.905 30.1992 37.9578C32.5281 37.0106 35.1619 37.758 40.4297 39.2529L49.3781 41.7733C52.7412 42.5488 56.2697 42.1089 59.3405 40.5311L61.8109 39.1058C64.4442 37.4192 66.4697 34.9324 67.5908 32.0094L70.0398 24.6953C71.65 19.8552 72.4551 17.4351 74.3716 16.0509C76.2886 14.6666 78.8347 14.6666 83.9262 14.6666H92.1014C97.1937 14.6666 99.7398 14.6666 101.656 16.0509C103.573 17.4351 104.378 19.8552 105.989 24.6953L108.437 32.0094C109.558 34.9324 111.584 37.4192 114.217 39.1058L116.688 40.5311C119.758 42.1089 123.287 42.5488 126.65 41.7733L135.598 39.2529C140.866 37.758 143.5 37.0106 145.829 37.9578C148.158 38.905 149.527 41.2804 152.264 46.0311L155.884 52.3129C158.45 56.766 159.732 58.9927 159.484 61.3629C159.234 63.7332 157.517 65.6433 154.082 69.4636L146.521 77.9166C144.673 80.256 143.361 84.3333 143.361 87.9985C143.361 91.6666 144.673 95.7425 146.521 98.0826L154.082 106.536C157.517 110.356 159.234 112.266 159.484 114.636C159.732 117.007 158.45 119.233 155.884 123.686L152.264 129.968C149.527 134.718 148.158 137.094 145.829 138.041C143.5 138.989 140.866 138.241 135.598 136.746L126.65 134.226C123.286 133.45 119.758 133.89 116.686 135.469L114.217 136.894C111.583 138.581 109.558 141.067 108.438 143.99L105.989 151.305C104.378 156.145 103.573 158.565 101.656 159.949C99.7398 161.333 97.1937 161.333 92.1014 161.333H83.9262C78.8347 161.333 76.2886 161.333 74.3716 159.949C72.4551 158.565 71.65 156.145 70.0398 151.305" stroke="url(#paint0_linear_63_21)" stroke-width="7" stroke-linecap="round"/>
<path d="M20.0709 137.719C27.9909 129.799 54.9189 103.135 57.5589 100.055C60.3498 96.7985 58.0869 92.3985 59.4333 78.7585C60.0848 72.1585 61.5045 67.214 65.5669 63.5345C70.4069 58.9585 74.3672 58.9585 88.0072 58.6506C99.8872 58.9585 101.295 57.6385 102.527 60.7186C103.407 62.9186 100.767 64.2385 97.5992 67.7586C90.5592 74.7985 86.4232 78.3185 86.0272 80.5185C83.1672 90.1985 94.4312 95.9185 100.591 89.7585C102.92 87.4287 113.703 76.5585 114.759 75.6785C115.551 74.9745 117.447 75.0082 118.367 76.1185C119.159 76.8966 119.247 76.9985 119.159 80.5185C119.078 83.7767 119.114 88.4546 119.124 93.2785C119.136 99.5287 118.807 106.479 116.167 109.999C110.887 117.919 102.087 118.359 94.1672 118.711C86.6872 119.15 80.5272 118.359 78.5912 119.767C77.0072 120.559 68.6469 129.359 58.5269 139.479L40.4869 157.518C25.5269 169.398 9.07093 150.919 20.0709 137.719Z" stroke="url(#paint1_linear_63_21)" stroke-width="7" stroke-linecap="round"/>
<defs>
<linearGradient id="paint0_linear_63_21" x1="88.014" y1="14.6666" x2="88.014" y2="161.333" gradientUnits="userSpaceOnUse">
<stop stop-color="#FE6A00"/>
<stop offset="1" stop-color="#983F00"/>
</linearGradient>
<linearGradient id="paint1_linear_63_21" x1="67.8362" y1="58.6237" x2="67.8362" y2="161.333" gradientUnits="userSpaceOnUse">
<stop stop-color="#FE6A00"/>
<stop offset="1" stop-color="#983F00"/>
</linearGradient>
</defs>
</svg>
