<svg width="166" height="166" viewBox="0 0 166 166" fill="none" xmlns="http://www.w3.org/2000/svg">
<path d="M96.8333 110.667C103.225 110.667 108.407 107.127 108.407 102.762C108.407 94.3192 108.501 90.8408 115.889 85.7951C118.148 84.2513 118.148 81.7488 115.889 80.205C108.501 75.1593 108.407 71.6809 108.407 63.2382C108.407 58.8724 103.225 55.3334 96.8333 55.3334M69.1666 110.667C62.7748 110.667 57.5932 107.127 57.5932 102.762C57.5932 94.3192 57.499 90.8408 50.1115 85.7951C47.8517 84.2513 47.8517 81.7488 50.1115 80.205C57.499 75.1593 57.5932 71.6809 57.5932 63.2382C57.5932 58.8724 62.7748 55.3334 69.1666 55.3334" stroke="url(#paint0_linear_31_16)" stroke-width="8.5" stroke-linecap="round" stroke-linejoin="round"/>
<path d="M17.2916 83C17.2916 52.0248 17.2916 36.5372 26.9144 26.9144C36.5372 17.2916 52.0248 17.2916 83 17.2916C113.975 17.2916 129.463 17.2916 139.086 26.9144C148.708 36.5372 148.708 52.0248 148.708 83C148.708 113.975 148.708 129.463 139.086 139.086C129.463 148.708 113.975 148.708 83 148.708C52.0248 148.708 36.5372 148.708 26.9144 139.086C17.2916 129.463 17.2916 113.975 17.2916 83Z" stroke="url(#paint1_linear_31_16)" stroke-width="8.5" stroke-linejoin="round"/>
<defs>
<linearGradient id="paint0_linear_31_16" x1="83" y1="55.3334" x2="93.5" y2="83" gradientUnits="userSpaceOnUse">
<stop stop-color="#FE6A00"/>
<stop offset="1" stop-color="#983F00" stop-opacity="0.75"/>
</linearGradient>
<linearGradient id="paint1_linear_31_16" x1="61.1508" y1="17.2916" x2="96.5" y2="112" gradientUnits="userSpaceOnUse">
<stop stop-color="#FE6A00"/>
<stop offset="1" stop-color="#983F00" stop-opacity="0.62"/>
</linearGradient>
</defs>
</svg>
