<svg width="409" height="560" viewBox="0 0 409 560" fill="none" xmlns="http://www.w3.org/2000/svg">
<g clip-path="url(#clip0_43_625)">
<g style="mix-blend-mode:screen" filter="url(#filter0_f_43_625)">
<path d="M142.582 350.059C298.203 -90.0555 633.207 -299.017 717.238 -357L-353.989 -25.3781L-196.426 915.491C33.985 862.521 -4.47662 765.957 142.582 350.059Z" fill="url(#paint0_radial_43_625)" fill-opacity="0.3"/>
</g>
<circle cx="214.933" cy="69.6731" r="1.50268" transform="rotate(-180 214.933 69.6731)" fill="#FE6A00" fill-opacity="0.15"/>
<circle cx="263.015" cy="57.6528" r="1.50268" transform="rotate(-180 263.015 57.6528)" fill="#FE6A00" fill-opacity="0.6"/>
<circle cx="50.7114" cy="66.0518" r="1.50268" transform="rotate(-180 50.7114 66.0518)" fill="#FE6A00" fill-opacity="0.3"/>
<circle cx="26.366" cy="213.354" r="2.2537" transform="rotate(-180 26.366 213.354)" fill="#FE6A00" fill-opacity="0.3"/>
<circle cx="125.911" cy="240.762" r="2.2537" transform="rotate(-180 125.911 240.762)" fill="#FE6A00" fill-opacity="0.3"/>
<circle cx="163.595" cy="62.4106" r="2.2537" transform="rotate(-180 163.595 62.4106)" fill="#FE6A00" fill-opacity="0.15"/>
<circle cx="63.4245" cy="264.755" r="2.2537" transform="rotate(-180 63.4245 264.755)" fill="#FE6A00" fill-opacity="0.1"/>
<circle cx="114.103" cy="221.825" r="2.2537" transform="rotate(-180 114.103 221.825)" fill="#FE6A00" fill-opacity="0.15"/>
<circle cx="63.1496" cy="116.935" r="2.2537" transform="rotate(-180 63.1496 116.935)" fill="#FE6A00" fill-opacity="0.1"/>
<circle cx="20.3078" cy="87.0847" r="2.2537" transform="rotate(-180 20.3078 87.0847)" fill="#FE6A00" fill-opacity="0.3"/>
<circle cx="109.503" cy="20.3388" r="2.2537" transform="rotate(-180 109.503 20.3388)" fill="#FE6A00" fill-opacity="0.7"/>
<circle cx="342.4" cy="299.314" r="0.751028" transform="rotate(-180 342.4 299.314)" fill="#FE6A00" fill-opacity="0.15"/>
<circle cx="274.119" cy="265.21" r="0.751028" transform="rotate(-180 274.119 265.21)" fill="#FE6A00" fill-opacity="0.3"/>
<circle cx="348.077" cy="206.412" r="0.751028" transform="rotate(-180 348.077 206.412)" fill="#FE6A00" fill-opacity="0.1"/>
<circle cx="170.873" cy="139.476" r="0.751028" transform="rotate(-180 170.873 139.476)" fill="#FE6A00" fill-opacity="0.3"/>
<circle cx="335.87" cy="241.693" r="0.751028" transform="rotate(-180 335.87 241.693)" fill="#FE6A00" fill-opacity="0.6"/>
<circle cx="120.933" cy="251.396" r="0.751028" transform="rotate(-180 120.933 251.396)" fill="#FE6A00" fill-opacity="0.1"/>
<circle cx="98.4577" cy="46.4645" r="0.751028" transform="rotate(-180 98.4577 46.4645)" fill="#FE6A00" fill-opacity="0.15"/>
<circle cx="120.1" cy="173.8" r="0.751028" transform="rotate(-180 120.1 173.8)" fill="#FE6A00" fill-opacity="0.1"/>
<circle cx="354.42" cy="96.9694" r="0.751028" transform="rotate(-180 354.42 96.9694)" fill="#FE6A00" fill-opacity="0.3"/>
<circle cx="254.889" cy="319.259" r="0.751028" transform="rotate(-180 254.889 319.259)" fill="#FE6A00" fill-opacity="0.3"/>
<circle cx="247.944" cy="121.496" r="0.751028" transform="rotate(-180 247.944 121.496)" fill="#FE6A00" fill-opacity="0.7"/>
<circle cx="378.461" cy="151.061" r="0.751028" transform="rotate(-180 378.461 151.061)" fill="#FE6A00" fill-opacity="0.15"/>
<circle cx="29.8673" cy="157.072" r="0.751028" transform="rotate(-180 29.8673 157.072)" fill="#FE6A00" fill-opacity="0.1"/>
<circle cx="73.5424" cy="201.679" r="0.751028" transform="rotate(-180 73.5424 201.679)" fill="#FE6A00" fill-opacity="0.3"/>
<circle cx="315.237" cy="22.1994" r="0.751028" transform="rotate(-180 315.237 22.1994)" fill="#FE6A00" fill-opacity="0.1"/>
<circle cx="246.276" cy="209.722" r="0.751028" transform="rotate(-180 246.276 209.722)" fill="#FE6A00" fill-opacity="0.15"/>
<circle cx="85.9627" cy="66.9182" r="0.751028" transform="rotate(-180 85.9627 66.9182)" fill="#FE6A00" fill-opacity="0.3"/>
<circle cx="246.228" cy="106.771" r="0.751028" transform="rotate(-180 246.228 106.771)" fill="#FE6A00" fill-opacity="0.1"/>
<circle cx="268.951" cy="115.82" r="0.751028" transform="rotate(-180 268.951 115.82)" fill="#FE6A00" fill-opacity="0.3"/>
<circle cx="25.8604" cy="133.031" r="0.751028" transform="rotate(-180 25.8604 133.031)" fill="#FE6A00" fill-opacity="0.15"/>
<circle cx="223.182" cy="7.63984" r="0.751028" transform="rotate(-180 223.182 7.63984)" fill="#FE6A00" fill-opacity="0.1"/>
<circle cx="212.356" cy="59.4108" r="0.751028" transform="rotate(-180 212.356 59.4108)" fill="#FE6A00" fill-opacity="0.1"/>
<circle cx="19.8502" cy="291.3" r="0.751028" transform="rotate(-180 19.8502 291.3)" fill="#FE6A00" fill-opacity="0.3"/>
<circle cx="69.2984" cy="12.3999" r="0.751028" transform="rotate(-180 69.2984 12.3999)" fill="#FE6A00" fill-opacity="0.1"/>
<path d="M375.206 51.1418L373.904 48.8878L376.507 48.8878L375.206 51.1418Z" fill="#FE6A00" fill-opacity="0.6"/>
<circle cx="112.007" cy="119.007" r="0.751028" transform="rotate(-180 112.007 119.007)" fill="#FE6A00" fill-opacity="0.1"/>
<path d="M10.5847 45.1316L9.28337 42.8776L11.8861 42.8776L10.5847 45.1316Z" fill="#FE6A00" fill-opacity="0.1"/>
<path d="M12.0961 8.13721L11.7773 6.9533L10.5934 6.63453L11.7773 6.31577L12.0961 5.13185L12.4148 6.31577L13.5988 6.63453L12.4148 6.9533L12.0961 8.13721Z" fill="#FE6A00" fill-opacity="0.1"/>
<path d="M311.097 63.1624L310.778 61.9784L309.594 61.6597L310.778 61.3409L311.097 60.157L311.415 61.3409L312.599 61.6597L311.415 61.9784L311.097 63.1624Z" fill="#FE6A00" fill-opacity="0.6"/>
<path d="M197.305 127.126L196.986 125.943L195.802 125.624L196.986 125.305L197.305 124.121L197.624 125.305L198.808 125.624L197.624 125.943L197.305 127.126Z" fill="#FE6A00" fill-opacity="0.1"/>
<path d="M269.025 17.0837L268.706 15.8998L267.522 15.5811L268.706 15.2623L269.025 14.0784L269.344 15.2623L270.528 15.5811L269.344 15.8998L269.025 17.0837Z" fill="#FE6A00" fill-opacity="0.8"/>
<path d="M248.237 234.603L247.919 233.419L246.735 233.101L247.919 232.782L248.237 231.598L248.556 232.782L249.74 233.101L248.556 233.419L248.237 234.603Z" fill="#FE6A00" fill-opacity="0.15"/>
<path d="M119.92 86.8826L119.601 85.6987L118.417 85.3799L119.601 85.0611L119.92 83.8772L120.239 85.0611L121.423 85.3799L120.239 85.6987L119.92 86.8826Z" fill="#FE6A00" fill-opacity="0.3"/>
<circle cx="374.454" cy="104.983" r="0.751028" transform="rotate(-180 374.454 104.983)" fill="#FE6A00" fill-opacity="0.3"/>
<path d="M389.616 238.403C372.581 175.396 319.053 36.3482 241.222 -15.7894" stroke="url(#paint1_linear_43_625)" stroke-opacity="0.1" stroke-width="4.00683"/>
<path d="M131.248 -22.2166C130.756 27.8389 95.1506 152.591 -43.3348 251.155" stroke="url(#paint2_linear_43_625)" stroke-opacity="0.1" stroke-width="4.00683"/>
</g>
<defs>
<filter id="filter0_f_43_625" x="-502.191" y="-505.202" width="1367.63" height="1568.89" filterUnits="userSpaceOnUse" color-interpolation-filters="sRGB">
<feFlood flood-opacity="0" result="BackgroundImageFix"/>
<feBlend mode="normal" in="SourceGraphic" in2="BackgroundImageFix" result="shape"/>
<feGaussianBlur stdDeviation="74.1009" result="effect1_foregroundBlur_43_625"/>
</filter>
<radialGradient id="paint0_radial_43_625" cx="0" cy="0" r="1" gradientUnits="userSpaceOnUse" gradientTransform="translate(433.425 247.987) rotate(-150.409) scale(615.014 615.032)">
<stop offset="0.409332" stop-color="#FE6A00"/>
<stop offset="1" stop-opacity="0"/>
<stop offset="1" stop-color="#2D2E32" stop-opacity="0"/>
</radialGradient>
<linearGradient id="paint1_linear_43_625" x1="300.015" y1="-22.5551" x2="371.603" y2="179.716" gradientUnits="userSpaceOnUse">
<stop stop-color="#FE6A00"/>
<stop offset="1" stop-color="white" stop-opacity="0"/>
</linearGradient>
<linearGradient id="paint2_linear_43_625" x1="132.143" y1="-27.403" x2="25.9416" y2="245.751" gradientUnits="userSpaceOnUse">
<stop stop-color="#FE6A00"/>
<stop offset="1" stop-color="white" stop-opacity="0"/>
</linearGradient>
<clipPath id="clip0_43_625">
<rect width="409" height="560" fill="white"/>
</clipPath>
</defs>
</svg>
