<svg width="176" height="176" viewBox="0 0 176 176" fill="none" xmlns="http://www.w3.org/2000/svg">
<path d="M107.192 34.9547C114.602 23.2164 118.306 17.3473 123.161 15.5792C126.502 14.3624 130.164 14.3624 133.505 15.5792C138.36 17.3473 142.065 23.2164 149.475 34.9547C157.815 48.1671 161.985 54.7732 161.25 60.2242C160.747 63.9629 158.865 67.3786 155.975 69.8012C151.761 73.3333 143.952 73.3333 128.333 73.3333C112.715 73.3333 104.905 73.3333 100.692 69.8012C97.8016 67.3786 95.9199 63.9629 95.4161 60.2242C94.6813 54.7732 98.8518 48.1671 107.192 34.9547Z" stroke="url(#paint0_linear_52_776)" stroke-width="7" stroke-linejoin="round"/>
<path d="M14.6667 44C14.6667 31.7786 14.6667 25.6679 17.7791 21.3842C18.7842 20.0007 20.0009 18.7841 21.3843 17.779C25.6681 14.6666 31.7787 14.6666 44.0001 14.6666C56.2214 14.6666 62.3321 14.6666 66.6159 17.779C67.9993 18.7841 69.216 20.0007 70.2211 21.3842C73.3334 25.6679 73.3334 31.7786 73.3334 44C73.3334 56.2213 73.3334 62.332 70.2211 66.6157C69.216 67.9992 67.9993 69.2158 66.6159 70.221C62.3321 73.3333 56.2214 73.3333 44.0001 73.3333C31.7787 73.3333 25.6681 73.3333 21.3843 70.221C20.0009 69.2158 18.7842 67.9992 17.7791 66.6157C14.6667 62.332 14.6667 56.2213 14.6667 44Z" stroke="url(#paint1_linear_52_776)" stroke-width="7" stroke-linejoin="round"/>
<path d="M128.333 161.333C144.534 161.333 157.667 148.2 157.667 132C157.667 115.8 144.534 102.667 128.333 102.667C112.133 102.667 99 115.8 99 132C99 148.2 112.133 161.333 128.333 161.333Z" stroke="url(#paint2_linear_52_776)" stroke-width="7" stroke-linejoin="round"/>
<path d="M69.6661 106.333L18.3333 157.667M18.3337 106.333L69.6666 157.667" stroke="url(#paint3_linear_52_776)" stroke-width="7" stroke-linecap="round" stroke-linejoin="round"/>
<defs>
<linearGradient id="paint0_linear_52_776" x1="128.333" y1="14.6666" x2="128.333" y2="73.3333" gradientUnits="userSpaceOnUse">
<stop stop-color="#FE6A00"/>
<stop offset="1" stop-color="#983F00"/>
</linearGradient>
<linearGradient id="paint1_linear_52_776" x1="44.0001" y1="14.6666" x2="44.0001" y2="73.3333" gradientUnits="userSpaceOnUse">
<stop stop-color="#FE6A00"/>
<stop offset="1" stop-color="#983F00"/>
</linearGradient>
<linearGradient id="paint2_linear_52_776" x1="128.333" y1="102.667" x2="128.333" y2="161.333" gradientUnits="userSpaceOnUse">
<stop stop-color="#FE6A00"/>
<stop offset="1" stop-color="#983F00"/>
</linearGradient>
<linearGradient id="paint3_linear_52_776" x1="43.9999" y1="106.333" x2="43.9999" y2="157.667" gradientUnits="userSpaceOnUse">
<stop stop-color="#FE6A00"/>
<stop offset="1" stop-color="#983F00"/>
</linearGradient>
</defs>
</svg>
