<svg width="176" height="176" viewBox="0 0 176 176" fill="none" xmlns="http://www.w3.org/2000/svg">
<path d="M40.3333 73.3333C41.2291 73.3333 42.0618 72.9187 43.7273 72.0896L57.1143 65.4252C63.0381 62.4761 66 61.0016 66 58.6666V29.3333M40.3333 73.3333C39.4375 73.3333 38.6048 72.9187 36.9393 72.0896L23.5523 65.4252C17.6286 62.4761 14.6666 61.0016 14.6666 58.6666V29.3333M40.3333 73.3333V44M66 29.3333C66 26.9983 63.0381 25.5238 57.1143 22.5747L43.7273 15.9103C42.0618 15.0812 41.2291 14.6666 40.3333 14.6666C39.4375 14.6666 38.6048 15.0812 36.9393 15.9103L23.5523 22.5747C17.6285 25.5238 14.6666 26.9983 14.6666 29.3333M66 29.3333C66 31.6683 63.0381 33.1428 57.1143 36.0918L43.7273 42.7563C42.0618 43.5854 41.2291 44 40.3333 44M14.6666 29.3333C14.6666 31.6683 17.6285 33.1428 23.5523 36.0918L36.9393 42.7563C38.6048 43.5854 39.4375 44 40.3333 44" stroke="url(#paint0_linear_49_733)" stroke-width="7" stroke-linejoin="round"/>
<path d="M135.667 73.3333C136.563 73.3333 137.395 72.9187 139.061 72.0896L152.448 65.4252C158.371 62.4761 161.333 61.0016 161.333 58.6666V29.3333M135.667 73.3333C134.771 73.3333 133.938 72.9187 132.273 72.0896L118.886 65.4252C112.962 62.4761 110 61.0016 110 58.6666V29.3333M135.667 73.3333V44M161.333 29.3333C161.333 26.9983 158.371 25.5238 152.448 22.5747L139.061 15.9103C137.395 15.0812 136.563 14.6666 135.667 14.6666C134.771 14.6666 133.938 15.0812 132.273 15.9103L118.886 22.5747C112.962 25.5238 110 26.9983 110 29.3333M161.333 29.3333C161.333 31.6683 158.371 33.1428 152.448 36.0918L139.061 42.7563C137.395 43.5854 136.563 44 135.667 44M110 29.3333C110 31.6683 112.962 33.1428 118.886 36.0918L132.273 42.7563C133.938 43.5854 134.771 44 135.667 44" stroke="url(#paint1_linear_49_733)" stroke-width="7" stroke-linejoin="round"/>
<path d="M84.3334 44H91.6667" stroke="url(#paint2_linear_49_733)" stroke-width="7" stroke-linecap="round"/>
<path d="M14.6666 88V113.667C14.6666 123.966 14.6666 129.116 17.1384 132.815C18.2085 134.416 19.5835 135.791 21.1849 136.861C24.8842 139.333 30.0339 139.333 40.3333 139.333" stroke="url(#paint3_linear_49_733)" stroke-width="7" stroke-linecap="round"/>
<path d="M161.333 88V113.667C161.333 123.966 161.333 129.116 158.861 132.815C157.791 134.416 156.416 135.791 154.815 136.861C151.116 139.333 145.966 139.333 135.667 139.333" stroke="url(#paint4_linear_49_733)" stroke-width="7" stroke-linecap="round"/>
<path d="M88 161.333C88.8962 161.333 89.7285 160.919 91.3939 160.09L104.781 153.425C110.705 150.476 113.667 149.002 113.667 146.667V117.333M88 161.333C87.1039 161.333 86.2716 160.919 84.6062 160.09L71.219 153.425C65.2953 150.476 62.3334 149.002 62.3334 146.667V117.333M88 161.333V132M113.667 117.333C113.667 114.998 110.705 113.524 104.781 110.575L91.3939 103.91C89.7285 103.081 88.8962 102.667 88 102.667C87.1039 102.667 86.2716 103.081 84.6062 103.91L71.219 110.575C65.2952 113.524 62.3334 114.998 62.3334 117.333M113.667 117.333C113.667 119.668 110.705 121.143 104.781 124.092L91.3939 130.756C89.7285 131.586 88.8962 132 88 132M62.3334 117.333C62.3334 119.668 65.2952 121.143 71.219 124.092L84.6062 130.756C86.2716 131.586 87.1039 132 88 132" stroke="url(#paint5_linear_49_733)" stroke-width="7" stroke-linejoin="round"/>
<defs>
<linearGradient id="paint0_linear_49_733" x1="40.3333" y1="14.6666" x2="40.3333" y2="73.3333" gradientUnits="userSpaceOnUse">
<stop stop-color="#FE6A00"/>
<stop offset="1" stop-color="#983F00"/>
</linearGradient>
<linearGradient id="paint1_linear_49_733" x1="135.667" y1="14.6666" x2="135.667" y2="73.3333" gradientUnits="userSpaceOnUse">
<stop stop-color="#FE6A00"/>
<stop offset="1" stop-color="#983F00"/>
</linearGradient>
<linearGradient id="paint2_linear_49_733" x1="81.1822" y1="47.4094" x2="99.6512" y2="61.0906" gradientUnits="userSpaceOnUse">
<stop stop-color="#FE6A00"/>
<stop offset="1" stop-color="#983F00"/>
</linearGradient>
<linearGradient id="paint3_linear_49_733" x1="9" y1="88" x2="27" y2="131" gradientUnits="userSpaceOnUse">
<stop stop-color="#FE6A00"/>
<stop offset="1" stop-color="#983F00"/>
</linearGradient>
<linearGradient id="paint4_linear_49_733" x1="161" y1="93" x2="145" y2="139" gradientUnits="userSpaceOnUse">
<stop stop-color="#FE6A00"/>
<stop offset="1" stop-color="#983F00"/>
</linearGradient>
<linearGradient id="paint5_linear_49_733" x1="88" y1="102.667" x2="88" y2="161.333" gradientUnits="userSpaceOnUse">
<stop stop-color="#FE6A00"/>
<stop offset="1" stop-color="#983F00"/>
</linearGradient>
</defs>
</svg>
