<svg width="1850" height="150" viewBox="0 0 1850 150" fill="none" xmlns="http://www.w3.org/2000/svg">
<g opacity="0.2" filter="url(#filter0_n_93_262)">
<path d="M67.4148 149.6C52.7482 149.6 40.4148 146.6 30.4148 140.6C20.4148 134.467 12.8815 126 7.81484 115.2C2.74818 104.4 0.214844 91.8667 0.214844 77.6C0.214844 63.3333 2.81484 50.7333 8.01484 39.8C13.2148 28.8667 20.8148 20.3333 30.8148 14.2C40.8148 7.93333 53.0148 4.8 67.4148 4.8C78.0815 4.8 87.4815 6.6 95.6148 10.2C103.748 13.8 110.348 18.9333 115.415 25.6C120.615 32.1333 123.948 40.2 125.415 49.8H101.215C99.3482 43 95.5482 37.6667 89.8149 33.8C84.0815 29.9333 76.6148 28 67.4148 28C57.4148 28 49.3482 30.3333 43.2148 35C37.0815 39.6667 32.6148 45.6667 29.8148 53C27.1482 60.3333 25.8148 68.2 25.8148 76.6C25.8148 85.2667 27.2148 93.4 30.0148 101C32.9482 108.6 37.5482 114.733 43.8148 119.4C50.0815 124.067 58.1482 126.4 68.0148 126.4C74.1482 126.4 79.4815 125.533 84.0148 123.8C88.6815 122.067 92.5482 119.6 95.6148 116.4C98.8148 113.067 101.015 109.2 102.215 104.8H127.615C126.015 114.267 122.415 122.333 116.815 129C111.348 135.667 104.348 140.8 95.8148 144.4C87.4148 147.867 77.9482 149.6 67.4148 149.6ZM146.202 148L146.202 6.6L170.602 6.6V56.2C173.402 52.6 176.669 49.6667 180.402 47.4C184.136 45.1333 188.069 43.5333 192.202 42.6C196.336 41.5333 200.269 41 204.002 41C214.002 41 221.869 43.2 227.602 47.6C233.336 52 237.336 57.8667 239.602 65.2C242.002 72.5333 243.202 80.8 243.202 90V148H218.802V94.2C218.802 90.6 218.536 86.9333 218.002 83.2C217.469 79.4667 216.402 76.1333 214.802 73.2C213.336 70.1333 211.069 67.6667 208.002 65.8C205.069 63.9333 201.136 63 196.202 63C191.536 63 187.536 64 184.202 66C180.869 67.8667 178.202 70.4667 176.202 73.8C174.336 77.1333 172.936 80.8 172.002 84.8C171.069 88.8 170.602 92.8 170.602 96.8V148H146.202ZM299.724 149.4C294.791 149.4 290.124 148.733 285.724 147.4C281.324 146.067 277.391 144.133 273.924 141.6C270.458 138.933 267.658 135.667 265.524 131.8C263.524 127.8 262.524 123.133 262.524 117.8C262.524 111 263.858 105.467 266.524 101.2C269.191 96.8 272.791 93.4667 277.324 91.2C281.991 88.9333 287.258 87.4 293.124 86.6C298.991 85.6667 305.124 85.2 311.524 85.2L332.124 85.2C332.124 80.5333 331.391 76.5333 329.924 73.2C328.458 69.7333 326.124 67 322.924 65C319.858 63 315.858 62 310.924 62C307.724 62 304.724 62.4 301.924 63.2C299.258 63.8667 296.924 65 294.924 66.6C293.058 68.0667 291.724 70 290.924 72.4H265.924C266.858 66.9333 268.724 62.2667 271.524 58.4C274.458 54.4 277.991 51.1333 282.124 48.6C286.391 46.0667 291.058 44.2 296.124 43C301.191 41.6667 306.324 41 311.524 41C326.858 41 337.991 45.4 344.924 54.2C351.991 63 355.524 75.3333 355.524 91.2V148H333.924L333.324 134.4C330.258 138.933 326.591 142.267 322.324 144.4C318.058 146.533 313.924 147.867 309.924 148.4C305.924 149.067 302.524 149.4 299.724 149.4ZM304.524 129.6C309.858 129.6 314.591 128.6 318.724 126.6C322.858 124.6 326.124 121.8 328.524 118.2C331.058 114.6 332.324 110.467 332.324 105.8V102.4L313.124 102.4C309.924 102.4 306.724 102.533 303.524 102.8C300.458 102.933 297.658 103.467 295.124 104.4C292.591 105.2 290.524 106.467 288.924 108.2C287.458 109.933 286.724 112.4 286.724 115.6C286.724 118.8 287.524 121.4 289.124 123.4C290.858 125.4 293.058 126.933 295.724 128C298.524 129.067 301.458 129.6 304.524 129.6ZM378.82 148V42.6H401.62L403.02 56C405.82 52.2667 409.086 49.3333 412.82 47.2C416.553 45.0667 420.486 43.5333 424.62 42.6C428.753 41.5333 432.62 41 436.22 41C446.22 41 454.086 43.2 459.82 47.6C465.686 52 469.82 57.8667 472.22 65.2C474.62 72.5333 475.82 80.7333 475.82 89.8V148H451.42V93.8C451.42 89.9333 451.153 86.2 450.62 82.6C450.086 78.8667 449.02 75.5333 447.42 72.6C445.953 69.6667 443.82 67.3333 441.02 65.6C438.22 63.8667 434.486 63 429.82 63C424.086 63 419.22 64.5333 415.22 67.6C411.22 70.6667 408.22 74.8 406.22 80C404.22 85.0667 403.22 90.8667 403.22 97.4V148L378.82 148ZM541.741 149.4C531.075 149.4 522.275 147 515.341 142.2C508.408 137.267 503.208 130.733 499.741 122.6C496.408 114.467 494.741 105.4 494.741 95.4C494.741 85 496.541 75.7333 500.141 67.6C503.741 59.3333 509.141 52.8667 516.341 48.2C523.541 43.4 532.541 41 543.341 41C547.341 41 551.208 41.4667 554.941 42.4C558.808 43.2 562.408 44.5333 565.741 46.4C569.208 48.1333 572.075 50.4667 574.341 53.4V6.6L598.741 6.6V148H575.141L574.741 134.8C572.208 138.133 569.208 140.867 565.741 143C562.408 145.133 558.675 146.733 554.541 147.8C550.408 148.867 546.141 149.4 541.741 149.4ZM546.341 127.4C552.741 127.4 558.008 125.933 562.141 123C566.275 119.933 569.341 115.933 571.341 111C573.475 105.933 574.541 100.6 574.541 95C574.541 89.1333 573.475 83.8 571.341 79C569.341 74.2 566.275 70.3333 562.141 67.4C558.008 64.4667 552.741 63 546.341 63C539.541 63 534.141 64.5333 530.141 67.6C526.275 70.6667 523.408 74.7333 521.541 79.8C519.808 84.7333 518.941 90.0667 518.941 95.8C518.941 100.067 519.408 104.133 520.341 108C521.408 111.733 523.008 115.067 525.141 118C527.275 120.933 530.075 123.267 533.541 125C537.008 126.6 541.275 127.4 546.341 127.4ZM655.974 149.4C651.041 149.4 646.374 148.733 641.974 147.4C637.574 146.067 633.641 144.133 630.174 141.6C626.708 138.933 623.908 135.667 621.774 131.8C619.774 127.8 618.774 123.133 618.774 117.8C618.774 111 620.108 105.467 622.774 101.2C625.441 96.8 629.041 93.4667 633.574 91.2C638.241 88.9333 643.508 87.4 649.374 86.6C655.241 85.6667 661.374 85.2 667.774 85.2H688.374C688.374 80.5333 687.641 76.5333 686.174 73.2C684.708 69.7333 682.374 67 679.174 65C676.108 63 672.108 62 667.174 62C663.974 62 660.974 62.4 658.174 63.2C655.508 63.8667 653.174 65 651.174 66.6C649.308 68.0667 647.974 70 647.174 72.4H622.174C623.108 66.9333 624.974 62.2667 627.774 58.4C630.708 54.4 634.241 51.1333 638.374 48.6C642.641 46.0667 647.308 44.2 652.374 43C657.441 41.6667 662.574 41 667.774 41C683.108 41 694.241 45.4 701.174 54.2C708.241 63 711.774 75.3333 711.774 91.2V148H690.174L689.574 134.4C686.508 138.933 682.841 142.267 678.574 144.4C674.308 146.533 670.174 147.867 666.174 148.4C662.174 149.067 658.774 149.4 655.974 149.4ZM660.774 129.6C666.108 129.6 670.841 128.6 674.974 126.6C679.108 124.6 682.374 121.8 684.774 118.2C687.308 114.6 688.574 110.467 688.574 105.8V102.4H669.374C666.174 102.4 662.974 102.533 659.774 102.8C656.708 102.933 653.908 103.467 651.374 104.4C648.841 105.2 646.774 106.467 645.174 108.2C643.708 109.933 642.974 112.4 642.974 115.6C642.974 118.8 643.774 121.4 645.374 123.4C647.108 125.4 649.308 126.933 651.974 128C654.774 129.067 657.708 129.6 660.774 129.6ZM735.07 148V42.6H757.87L759.27 56C762.07 52.2667 765.336 49.3333 769.07 47.2C772.803 45.0667 776.736 43.5333 780.87 42.6C785.003 41.5333 788.87 41 792.47 41C802.47 41 810.336 43.2 816.07 47.6C821.936 52 826.07 57.8667 828.47 65.2C830.87 72.5333 832.07 80.7333 832.07 89.8V148H807.67V93.8C807.67 89.9333 807.403 86.2 806.87 82.6C806.336 78.8667 805.27 75.5333 803.67 72.6C802.203 69.6667 800.07 67.3333 797.27 65.6C794.47 63.8667 790.736 63 786.07 63C780.336 63 775.47 64.5333 771.47 67.6C767.47 70.6667 764.47 74.8 762.47 80C760.47 85.0667 759.47 90.8667 759.47 97.4V148H735.07ZM914.655 148V6.6L939.655 6.6V67.4H959.855L999.855 6.6L1028.26 6.6L981.055 75.8L1028.26 148H999.255L961.055 90.2H939.655V148H914.655ZM1042.1 148V6.6L1066.5 6.6V56.2C1069.3 52.6 1072.57 49.6667 1076.3 47.4C1080.03 45.1333 1083.97 43.5333 1088.1 42.6C1092.23 41.5333 1096.17 41 1099.9 41C1109.9 41 1117.77 43.2 1123.5 47.6C1129.23 52 1133.23 57.8667 1135.5 65.2C1137.9 72.5333 1139.1 80.8 1139.1 90V148H1114.7V94.2C1114.7 90.6 1114.43 86.9333 1113.9 83.2C1113.37 79.4667 1112.3 76.1333 1110.7 73.2C1109.23 70.1333 1106.97 67.6667 1103.9 65.8C1100.97 63.9333 1097.03 63 1092.1 63C1087.43 63 1083.43 64 1080.1 66C1076.77 67.8667 1074.1 70.4667 1072.1 73.8C1070.23 77.1333 1068.83 80.8 1067.9 84.8C1066.97 88.8 1066.5 92.8 1066.5 96.8V148H1042.1ZM1195.62 149.4C1190.69 149.4 1186.02 148.733 1181.62 147.4C1177.22 146.067 1173.29 144.133 1169.82 141.6C1166.36 138.933 1163.56 135.667 1161.42 131.8C1159.42 127.8 1158.42 123.133 1158.42 117.8C1158.42 111 1159.76 105.467 1162.42 101.2C1165.09 96.8 1168.69 93.4667 1173.22 91.2C1177.89 88.9333 1183.16 87.4 1189.02 86.6C1194.89 85.6667 1201.02 85.2 1207.42 85.2H1228.02C1228.02 80.5333 1227.29 76.5333 1225.82 73.2C1224.36 69.7333 1222.02 67 1218.82 65C1215.76 63 1211.76 62 1206.82 62C1203.62 62 1200.62 62.4 1197.82 63.2C1195.16 63.8667 1192.82 65 1190.82 66.6C1188.96 68.0667 1187.62 70 1186.82 72.4L1161.82 72.4C1162.76 66.9333 1164.62 62.2667 1167.42 58.4C1170.36 54.4 1173.89 51.1333 1178.02 48.6C1182.29 46.0667 1186.96 44.2 1192.02 43C1197.09 41.6667 1202.22 41 1207.42 41C1222.76 41 1233.89 45.4 1240.82 54.2C1247.89 63 1251.42 75.3333 1251.42 91.2V148L1229.82 148L1229.22 134.4C1226.16 138.933 1222.49 142.267 1218.22 144.4C1213.96 146.533 1209.82 147.867 1205.82 148.4C1201.82 149.067 1198.42 149.4 1195.62 149.4ZM1200.42 129.6C1205.76 129.6 1210.49 128.6 1214.62 126.6C1218.76 124.6 1222.02 121.8 1224.42 118.2C1226.96 114.6 1228.22 110.467 1228.22 105.8V102.4H1209.02C1205.82 102.4 1202.62 102.533 1199.42 102.8C1196.36 102.933 1193.56 103.467 1191.02 104.4C1188.49 105.2 1186.42 106.467 1184.82 108.2C1183.36 109.933 1182.62 112.4 1182.62 115.6C1182.62 118.8 1183.42 121.4 1185.02 123.4C1186.76 125.4 1188.96 126.933 1191.62 128C1194.42 129.067 1197.36 129.6 1200.42 129.6ZM1274.72 148V42.6H1297.12L1298.72 54.6C1301.38 51 1304.25 48.2667 1307.32 46.4C1310.52 44.4 1313.78 43 1317.12 42.2C1320.58 41.4 1323.85 41 1326.92 41C1333.58 41 1339.25 42.3333 1343.92 45C1348.72 47.6667 1352.45 51.6667 1355.12 57C1357.78 53.2667 1360.78 50.2667 1364.12 48C1367.45 45.6 1370.98 43.8667 1374.72 42.8C1378.45 41.6 1382.38 41 1386.52 41C1394.65 41 1401.18 42.7333 1406.12 46.2C1411.05 49.5333 1414.65 54.2 1416.92 60.2C1419.18 66.0667 1420.32 72.8 1420.32 80.4V148H1395.92V88.2C1395.92 85.5333 1395.78 82.7333 1395.52 79.8C1395.25 76.8667 1394.52 74.1333 1393.32 71.6C1392.25 69.0667 1390.65 67 1388.52 65.4C1386.38 63.8 1383.38 63 1379.52 63C1375.65 63 1372.45 63.8667 1369.92 65.6C1367.52 67.2 1365.52 69.4 1363.92 72.2C1362.45 74.8667 1361.38 77.8667 1360.72 81.2C1360.18 84.4 1359.92 87.6 1359.92 90.8V148H1335.52V88C1335.52 85.4667 1335.32 82.8 1334.92 80C1334.65 77.0667 1333.98 74.3333 1332.92 71.8C1331.98 69.1333 1330.38 67 1328.12 65.4C1325.98 63.8 1322.98 63 1319.12 63C1313.52 63 1309.25 64.5333 1306.32 67.6C1303.52 70.6667 1301.58 74.4 1300.52 78.8C1299.58 83.2 1299.12 87.4 1299.12 91.4V148H1274.72ZM1442.88 148V42.6H1467.28V148H1442.88ZM1455.08 30.4C1450.42 30.4 1446.68 29 1443.88 26.2C1441.08 23.4 1439.68 19.7333 1439.68 15.2C1439.68 10.8 1441.15 7.19999 1444.08 4.39999C1447.02 1.46666 1450.68 -1.90735e-06 1455.08 -1.90735e-06C1459.35 -1.90735e-06 1463.02 1.4 1466.08 4.19999C1469.15 7 1470.68 10.6667 1470.68 15.2C1470.68 19.7333 1469.22 23.4 1466.28 26.2C1463.35 29 1459.62 30.4 1455.08 30.4ZM1536.93 148C1528.4 148 1521.33 146.867 1515.73 144.6C1510.26 142.333 1506.13 138.667 1503.33 133.6C1500.66 128.533 1499.33 121.733 1499.33 113.2V64.2H1483.13V42.6H1499.33V13.2L1523.73 13.2V42.6H1548.33V64.2H1523.73V110C1523.73 115.333 1524.66 119.4 1526.53 122.2C1528.4 125 1532.6 126.4 1539.13 126.4H1547.53V148H1536.93ZM1564.56 148V6.6L1588.96 6.6V84.8H1604.16L1631.96 42.6H1659.36L1625.16 92.8L1662.16 148H1633.76L1605.56 106.2H1588.96V148H1564.56ZM1707.34 149.4C1702.41 149.4 1697.74 148.733 1693.34 147.4C1688.94 146.067 1685.01 144.133 1681.54 141.6C1678.07 138.933 1675.27 135.667 1673.14 131.8C1671.14 127.8 1670.14 123.133 1670.14 117.8C1670.14 111 1671.47 105.467 1674.14 101.2C1676.81 96.8 1680.41 93.4667 1684.94 91.2C1689.61 88.9333 1694.87 87.4 1700.74 86.6C1706.61 85.6667 1712.74 85.2 1719.14 85.2L1739.74 85.2C1739.74 80.5333 1739.01 76.5333 1737.54 73.2C1736.07 69.7333 1733.74 67 1730.54 65C1727.47 63 1723.47 62 1718.54 62C1715.34 62 1712.34 62.4 1709.54 63.2C1706.87 63.8667 1704.54 65 1702.54 66.6C1700.67 68.0667 1699.34 70 1698.54 72.4H1673.54C1674.47 66.9333 1676.34 62.2667 1679.14 58.4C1682.07 54.4 1685.61 51.1333 1689.74 48.6C1694.01 46.0667 1698.67 44.2 1703.74 43C1708.81 41.6667 1713.94 41 1719.14 41C1734.47 41 1745.61 45.4 1752.54 54.2C1759.61 63 1763.14 75.3333 1763.14 91.2V148H1741.54L1740.94 134.4C1737.87 138.933 1734.21 142.267 1729.94 144.4C1725.67 146.533 1721.54 147.867 1717.54 148.4C1713.54 149.067 1710.14 149.4 1707.34 149.4ZM1712.14 129.6C1717.47 129.6 1722.21 128.6 1726.34 126.6C1730.47 124.6 1733.74 121.8 1736.14 118.2C1738.67 114.6 1739.94 110.467 1739.94 105.8V102.4L1720.74 102.4C1717.54 102.4 1714.34 102.533 1711.14 102.8C1708.07 102.933 1705.27 103.467 1702.74 104.4C1700.21 105.2 1698.14 106.467 1696.54 108.2C1695.07 109.933 1694.34 112.4 1694.34 115.6C1694.34 118.8 1695.14 121.4 1696.74 123.4C1698.47 125.4 1700.67 126.933 1703.34 128C1706.14 129.067 1709.07 129.6 1712.14 129.6ZM1786.44 148V42.6H1808.64L1810.04 56.4C1812.7 52.4 1815.7 49.3333 1819.04 47.2C1822.5 44.9333 1826.17 43.3333 1830.04 42.4C1834.04 41.4667 1838.04 41 1842.04 41C1843.5 41 1844.84 41 1846.04 41C1847.37 41 1848.44 41.0667 1849.24 41.2V64.4H1842.84C1835.9 64.4 1830.04 65.7333 1825.24 68.4C1820.44 71.0667 1816.84 74.8667 1814.44 79.8C1812.04 84.7333 1810.84 90.8 1810.84 98V148L1786.44 148Z" fill="#A6A09B"/>
</g>
<defs>
<filter id="filter0_n_93_262" x="0.214844" y="0" width="1849.02" height="149.6" filterUnits="userSpaceOnUse" color-interpolation-filters="sRGB">
<feFlood flood-opacity="0" result="BackgroundImageFix"/>
<feBlend mode="normal" in="SourceGraphic" in2="BackgroundImageFix" result="shape"/>
<feTurbulence type="fractalNoise" baseFrequency="0.3333333432674408 0.3333333432674408" stitchTiles="stitch" numOctaves="3" result="noise" seed="8807" />
<feColorMatrix in="noise" type="luminanceToAlpha" result="alphaNoise" />
<feComponentTransfer in="alphaNoise" result="coloredNoise1">
<feFuncA type="discrete" tableValues="1 1 1 1 1 1 1 1 1 1 1 1 1 1 1 1 1 1 1 1 1 1 1 1 1 1 1 1 1 1 1 1 1 1 1 1 1 1 1 1 1 1 1 1 1 1 1 1 1 1 1 0 0 0 0 0 0 0 0 0 0 0 0 0 0 0 0 0 0 0 0 0 0 0 0 0 0 0 0 0 0 0 0 0 0 0 0 0 0 0 0 0 0 0 0 0 0 0 0 0 "/>
</feComponentTransfer>
<feComposite operator="in" in2="shape" in="coloredNoise1" result="noise1Clipped" />
<feFlood flood-color="rgba(0, 0, 0, 0.25)" result="color1Flood" />
<feComposite operator="in" in2="noise1Clipped" in="color1Flood" result="color1" />
<feMerge result="effect1_noise_93_262">
<feMergeNode in="shape" />
<feMergeNode in="color1" />
</feMerge>
</filter>
</defs>
</svg>
