<svg width="226" height="351" viewBox="0 0 226 351" fill="none" xmlns="http://www.w3.org/2000/svg">
<path d="M183.328 52.3702L179.709 46.0885C176.971 41.3378 175.603 38.9624 173.273 38.0152C170.944 37.068 168.31 37.8154 163.043 39.3102L154.095 41.8307C150.732 42.6063 147.203 42.1663 144.132 40.5885L141.662 39.1631C139.028 37.4765 137.003 34.9898 135.882 32.0668L133.433 24.7527C131.823 19.9126 131.017 17.4925 129.1 16.1082C127.184 14.724 124.638 14.724 119.546 14.724H111.371C106.279 14.724 103.733 14.724 101.816 16.1082C99.8995 17.4925 99.0944 19.9126 97.4842 24.7527L95.0351 32.0668C93.914 34.9898 91.8885 37.4765 89.2553 39.1631L86.7848 40.5885C83.714 42.1663 80.1856 42.6063 76.8224 41.8307L67.8741 39.3102C62.6062 37.8154 59.9724 37.068 57.6435 38.0152C55.3146 38.9624 53.9459 41.3378 51.2083 46.0885L47.5888 52.3702C45.0227 56.8234 43.7397 59.05 43.9887 61.4203C44.2377 63.7906 45.9553 65.7007 49.3905 69.5209L56.9514 77.9739C58.7994 80.3133 60.1115 84.3906 60.1115 88.0565C60.1115 91.7239 58.7999 95.7998 56.9517 98.1399L49.3905 106.593C45.9553 110.414 44.2378 112.323 43.9887 114.694C43.7397 117.064 45.0227 119.291 47.5888 123.743L51.2083 130.025C53.9457 134.776 55.3146 137.152 57.6435 138.098C59.9724 139.046 62.6063 138.299 67.8742 136.803L76.8221 134.283C80.1859 133.507 83.715 133.948 86.7862 135.526L89.2562 136.952C91.889 138.638 93.9139 141.124 95.0349 144.047L97.4842 151.362C99.0944 156.202 99.8995 158.622 101.816 160.007C103.733 161.391 106.279 161.391 111.371 161.391H119.546C124.638 161.391 127.184 161.391 129.1 160.007C131.017 158.622 131.823 156.202 133.433 151.362L135.882 144.047C137.003 141.124 139.028 138.638 141.661 136.952L144.131 135.526C147.202 133.948 150.731 133.507 154.095 134.283L163.043 136.803C168.31 138.299 170.944 139.046 173.273 138.098C175.603 137.152 176.971 134.776 179.709 130.025L183.328 123.743C185.894 119.291 187.177 117.064 186.928 114.694C186.679 112.323 184.961 110.414 181.526 106.593L173.965 98.1399C172.117 95.7998 170.805 91.7239 170.805 88.0565C170.805 84.3906 172.118 80.3133 173.965 77.9739L181.526 69.5209C184.961 65.7007 186.679 63.7906 186.928 61.4203C187.177 59.05 185.894 56.8234 183.328 52.3702Z" stroke="url(#paint0_linear_52_760)" stroke-width="7" stroke-linecap="round"/>
<path d="M140.81 88C140.81 102.175 129.318 113.667 115.143 113.667C100.968 113.667 89.4766 102.175 89.4766 88C89.4766 73.8247 100.968 62.3334 115.143 62.3334C129.318 62.3334 140.81 73.8247 140.81 88Z" stroke="url(#paint1_linear_52_760)" stroke-width="7"/>
<path d="M112.525 282.475C113.892 283.842 116.108 283.842 117.475 282.475L139.749 260.201C141.116 258.834 141.116 256.618 139.749 255.251C138.382 253.884 136.166 253.884 134.799 255.251L115 275.05L95.201 255.251C93.8342 253.884 91.6181 253.884 90.2513 255.251C88.8844 256.618 88.8844 258.834 90.2513 260.201L112.525 282.475ZM115 161L111.5 161L111.5 280L115 280L118.5 280L118.5 161L115 161Z" fill="url(#paint2_linear_52_760)"/>
<path d="M33.6458 192.765L36.9799 193.83L33.6458 192.765ZM25.8314 282.678C27.3103 283.923 29.5183 283.733 30.763 282.254L51.0468 258.154C52.2915 256.675 52.1016 254.467 50.6227 253.222C49.1438 251.977 46.9359 252.167 45.6912 253.646L27.6611 275.068L6.23877 257.038C4.75986 255.794 2.55193 255.984 1.30722 257.462C0.0625026 258.941 0.252354 261.149 1.73126 262.394L25.8314 282.678ZM85 134C83.1001 131.061 83.0993 131.061 83.0984 131.062C83.0979 131.062 83.0968 131.063 83.0957 131.063C83.0936 131.065 83.0909 131.067 83.0876 131.069C83.0809 131.073 83.0717 131.079 83.0601 131.087C83.0369 131.102 83.0039 131.123 82.9614 131.151C82.8764 131.207 82.7533 131.288 82.5944 131.394C82.2765 131.606 81.815 131.917 81.2276 132.323C80.0531 133.133 78.3736 134.321 76.3303 135.845C72.247 138.891 66.694 143.294 60.808 148.727C49.1333 159.503 35.7401 174.702 30.3117 191.7L33.6458 192.765L36.9799 193.83C41.8424 178.604 54.1263 164.42 65.5559 153.87C71.2221 148.64 76.5781 144.393 80.5158 141.456C82.483 139.988 84.092 138.851 85.2033 138.084C85.7588 137.701 86.1896 137.41 86.4783 137.218C86.6226 137.122 86.7314 137.05 86.8024 137.003C86.8379 136.98 86.8639 136.963 86.8803 136.952C86.8885 136.947 86.8942 136.943 86.8975 136.941C86.8991 136.94 86.9001 136.939 86.9005 136.939C86.9007 136.939 86.9006 136.939 86.9007 136.939C86.9004 136.939 86.8999 136.939 85 134ZM33.6458 192.765L30.3117 191.7C24.9944 208.351 23.6106 230.612 23.5065 248.446C23.4541 257.416 23.7262 265.367 24.0113 271.076C24.1538 273.931 24.2998 276.229 24.4105 277.817C24.4659 278.611 24.5124 279.227 24.5452 279.647C24.5617 279.857 24.5747 280.018 24.5837 280.128C24.5882 280.183 24.5917 280.225 24.5941 280.253C24.5953 280.268 24.5963 280.279 24.5969 280.287C24.5973 280.29 24.5975 280.294 24.5977 280.296C24.5978 280.297 24.5979 280.298 24.5979 280.298C24.598 280.299 24.5981 280.3 28.0852 280C31.5723 279.7 31.5723 279.7 31.5723 279.7C31.5723 279.7 31.5723 279.7 31.5722 279.699C31.5722 279.698 31.572 279.696 31.5717 279.693C31.5713 279.688 31.5705 279.679 31.5695 279.667C31.5674 279.642 31.5643 279.605 31.5602 279.555C31.5519 279.454 31.5396 279.302 31.5239 279.101C31.4925 278.7 31.4475 278.103 31.3936 277.33C31.2858 275.783 31.1426 273.532 31.0025 270.727C30.7223 265.114 30.455 257.298 30.5064 248.487C30.6099 230.759 32.0064 209.404 36.9799 193.83L33.6458 192.765Z" fill="url(#paint3_linear_52_760)"/>
<path d="M192.354 192.765L189.02 193.83L192.354 192.765ZM200.169 282.678C198.69 283.923 196.482 283.733 195.237 282.254L174.953 258.154C173.709 256.675 173.898 254.467 175.377 253.222C176.856 251.977 179.064 252.167 180.309 253.646L198.339 275.068L219.761 257.038C221.24 255.794 223.448 255.984 224.693 257.462C225.937 258.941 225.748 261.149 224.269 262.394L200.169 282.678ZM141 134C142.9 131.061 142.901 131.061 142.902 131.062C142.902 131.062 142.903 131.063 142.904 131.063C142.906 131.065 142.909 131.067 142.912 131.069C142.919 131.073 142.928 131.079 142.94 131.087C142.963 131.102 142.996 131.123 143.039 131.151C143.124 131.207 143.247 131.288 143.406 131.394C143.724 131.606 144.185 131.917 144.772 132.323C145.947 133.133 147.626 134.321 149.67 135.845C153.753 138.891 159.306 143.294 165.192 148.727C176.867 159.503 190.26 174.702 195.688 191.7L192.354 192.765L189.02 193.83C184.158 178.604 171.874 164.42 160.444 153.87C154.778 148.64 149.422 144.393 145.484 141.456C143.517 139.988 141.908 138.851 140.797 138.084C140.241 137.701 139.81 137.41 139.522 137.218C139.377 137.122 139.269 137.05 139.198 137.003C139.162 136.98 139.136 136.963 139.12 136.952C139.112 136.947 139.106 136.943 139.103 136.941C139.101 136.94 139.1 136.939 139.099 136.939C139.099 136.939 139.099 136.939 139.099 136.939C139.1 136.939 139.1 136.939 141 134ZM192.354 192.765L195.688 191.7C201.006 208.351 202.389 230.612 202.493 248.446C202.546 257.416 202.274 265.367 201.989 271.076C201.846 273.931 201.7 276.229 201.589 277.817C201.534 278.611 201.488 279.227 201.455 279.647C201.438 279.857 201.425 280.018 201.416 280.128C201.412 280.183 201.408 280.225 201.406 280.253C201.405 280.268 201.404 280.279 201.403 280.287C201.403 280.29 201.402 280.294 201.402 280.296C201.402 280.297 201.402 280.298 201.402 280.298C201.402 280.299 201.402 280.3 197.915 280C194.428 279.7 194.428 279.7 194.428 279.7C194.428 279.7 194.428 279.7 194.428 279.699C194.428 279.698 194.428 279.696 194.428 279.693C194.429 279.688 194.429 279.679 194.431 279.667C194.433 279.642 194.436 279.605 194.44 279.555C194.448 279.454 194.46 279.302 194.476 279.101C194.507 278.7 194.553 278.103 194.606 277.33C194.714 275.783 194.857 273.532 194.997 270.727C195.278 265.114 195.545 257.298 195.494 248.487C195.39 230.759 193.994 209.404 189.02 193.83L192.354 192.765Z" fill="url(#paint4_linear_52_760)"/>
<circle cx="31" cy="328" r="19.5" stroke="url(#paint5_linear_52_760)" stroke-width="7"/>
<circle cx="116" cy="328" r="19.5" stroke="url(#paint6_linear_52_760)" stroke-width="7"/>
<circle cx="201" cy="328" r="19.5" stroke="url(#paint7_linear_52_760)" stroke-width="7"/>
<defs>
<linearGradient id="paint0_linear_52_760" x1="115.458" y1="14.724" x2="115.458" y2="161.391" gradientUnits="userSpaceOnUse">
<stop stop-color="#983F00"/>
<stop offset="1" stop-color="#FE6A00"/>
</linearGradient>
<linearGradient id="paint1_linear_52_760" x1="115.143" y1="62.3334" x2="115.143" y2="113.667" gradientUnits="userSpaceOnUse">
<stop stop-color="#983F00"/>
<stop offset="1" stop-color="#FE6A00"/>
</linearGradient>
<linearGradient id="paint2_linear_52_760" x1="114.5" y1="161" x2="114.5" y2="280" gradientUnits="userSpaceOnUse">
<stop stop-color="#FE6A00"/>
<stop offset="1" stop-color="#983F00"/>
</linearGradient>
<linearGradient id="paint3_linear_52_760" x1="27.7581" y1="134.73" x2="27.7581" y2="280" gradientUnits="userSpaceOnUse">
<stop stop-color="#FE6A00"/>
<stop offset="1" stop-color="#983F00"/>
</linearGradient>
<linearGradient id="paint4_linear_52_760" x1="198.242" y1="134.73" x2="198.242" y2="280" gradientUnits="userSpaceOnUse">
<stop stop-color="#FE6A00"/>
<stop offset="1" stop-color="#983F00"/>
</linearGradient>
<linearGradient id="paint5_linear_52_760" x1="31" y1="305" x2="31" y2="351" gradientUnits="userSpaceOnUse">
<stop stop-color="#FE6A00"/>
<stop offset="1" stop-color="#983F00"/>
</linearGradient>
<linearGradient id="paint6_linear_52_760" x1="116" y1="305" x2="116" y2="351" gradientUnits="userSpaceOnUse">
<stop stop-color="#FE6A00"/>
<stop offset="1" stop-color="#983F00"/>
</linearGradient>
<linearGradient id="paint7_linear_52_760" x1="201" y1="305" x2="201" y2="351" gradientUnits="userSpaceOnUse">
<stop stop-color="#FE6A00"/>
<stop offset="1" stop-color="#983F00"/>
</linearGradient>
</defs>
</svg>
