<svg width="156" height="697" viewBox="0 0 156 697" fill="none" xmlns="http://www.w3.org/2000/svg">
<path d="M85.32 682.04C85.32 684.947 84.7067 687.387 83.48 689.36C82.2533 691.307 80.56 692.773 78.4 693.76C76.24 694.747 73.7467 695.24 70.92 695.24C68.0933 695.24 65.5867 694.747 63.4 693.76C61.2133 692.747 59.5067 691.267 58.28 689.32C57.0267 687.347 56.4 684.907 56.4 682C56.4 679.893 56.7467 678.053 57.44 676.48C58.1067 674.907 59.0667 673.64 60.32 672.68C61.5467 671.693 63.0133 671.04 64.72 670.72V674.88C63.36 675.28 62.28 676.093 61.48 677.32C60.68 678.547 60.28 680.12 60.28 682.04C60.28 684.173 60.7733 685.893 61.76 687.2C62.7467 688.48 64.04 689.413 65.64 690C67.2133 690.587 68.92 690.88 70.76 690.88C72.6533 690.88 74.4133 690.573 76.04 689.96C77.6667 689.347 78.9733 688.373 79.96 687.04C80.9467 685.707 81.44 684 81.44 681.92C81.44 680.64 81.2667 679.507 80.92 678.52C80.5467 677.533 80.0267 676.707 79.36 676.04C78.6667 675.373 77.8667 674.92 76.96 674.68V670.24C78.6933 670.587 80.1867 671.293 81.44 672.36C82.6933 673.427 83.6533 674.773 84.32 676.4C84.9867 678.027 85.32 679.907 85.32 682.04ZM85 666.199H56.72V662.079H66.88C66.16 661.519 65.56 660.879 65.08 660.159C64.6 659.412 64.24 658.612 64 657.759C63.76 656.905 63.64 656.052 63.64 655.199C63.64 653.172 64.08 651.585 64.96 650.439C65.8133 649.292 66.9733 648.479 68.44 647.999C69.9067 647.519 71.56 647.279 73.4 647.279H85V651.439H74.36C73.5067 651.439 72.6667 651.505 71.84 651.639C71.0133 651.745 70.2667 651.959 69.6 652.279C68.9067 652.599 68.36 653.092 67.96 653.759C67.5333 654.399 67.32 655.265 67.32 656.359C67.32 657.399 67.5467 658.292 68 659.039C68.4533 659.759 69.0667 660.345 69.84 660.799C70.5867 661.225 71.4133 661.545 72.32 661.759C73.2 661.972 74.08 662.079 74.96 662.079H85V666.199ZM85.24 635.651C85.24 636.611 85.12 637.544 84.88 638.451C84.6133 639.331 84.2267 640.117 83.72 640.811C83.1867 641.504 82.5333 642.064 81.76 642.491C80.96 642.891 80.0267 643.091 78.96 643.091C77.68 643.091 76.6267 642.851 75.8 642.371C74.9467 641.864 74.2933 641.197 73.84 640.371C73.36 639.544 73.0267 638.597 72.84 637.531C72.6267 636.437 72.52 635.304 72.52 634.131V628.971C71.48 628.971 70.5733 629.131 69.8 629.451C69 629.771 68.3867 630.277 67.96 630.971C67.5067 631.637 67.28 632.531 67.28 633.651C67.28 634.317 67.36 634.957 67.52 635.571C67.6533 636.157 67.88 636.664 68.2 637.091C68.52 637.517 68.9467 637.811 69.48 637.971V642.291C68.4667 642.131 67.6 641.771 66.88 641.211C66.1333 640.651 65.52 639.957 65.04 639.131C64.56 638.304 64.2133 637.424 64 636.491C63.76 635.531 63.64 634.557 63.64 633.571C63.64 630.531 64.5333 628.344 66.32 627.011C68.08 625.651 70.5067 624.971 73.6 624.971H85V628.531L82.32 628.691C83.1467 629.304 83.7733 630.037 84.2 630.891C84.6267 631.717 84.9067 632.544 85.04 633.371C85.1733 634.197 85.24 634.957 85.24 635.651ZM81.76 635.011C81.76 633.811 81.56 632.757 81.16 631.851C80.7333 630.944 80.1333 630.237 79.36 629.731C78.56 629.224 77.6267 628.971 76.56 628.971H75.68V632.731C75.68 633.504 75.7067 634.264 75.76 635.011C75.7867 635.731 75.8933 636.397 76.08 637.011C76.24 637.597 76.52 638.077 76.92 638.451C77.32 638.797 77.8933 638.971 78.64 638.971C79.36 638.971 79.9467 638.784 80.4 638.411C80.8533 638.037 81.2 637.544 81.44 636.931C81.6533 636.317 81.76 635.677 81.76 635.011ZM85 620.027H63.92V616.107L66.88 615.907C66.1067 615.374 65.4933 614.734 65.04 613.987C64.56 613.24 64.2133 612.44 64 611.587C63.76 610.734 63.64 609.907 63.64 609.107C63.64 607.08 64.08 605.494 64.96 604.347C65.8133 603.174 66.9733 602.347 68.44 601.867C69.88 601.36 71.52 601.107 73.36 601.107H85L85 605.267H74.2C73.3467 605.267 72.5067 605.32 71.68 605.427C70.8533 605.534 70.12 605.76 69.48 606.107C68.8133 606.427 68.2933 606.894 67.92 607.507C67.52 608.12 67.32 608.947 67.32 609.987C67.32 611.267 67.6667 612.347 68.36 613.227C69.0533 614.107 69.9867 614.774 71.16 615.227C72.3333 615.68 73.6533 615.907 75.12 615.907H85V620.027ZM85.24 587.679C85.24 589.785 84.7733 591.532 83.84 592.919C82.88 594.279 81.5867 595.305 79.96 595.999C78.3333 596.665 76.5067 596.999 74.48 596.999C72.4267 596.999 70.5867 596.652 68.96 595.959C67.3067 595.265 66.0133 594.212 65.08 592.799C64.12 591.385 63.64 589.599 63.64 587.439C63.64 586.639 63.7333 585.839 63.92 585.039C64.1067 584.212 64.4 583.452 64.8 582.759C65.1733 582.039 65.68 581.425 66.32 580.919H56.72V576.799H85V580.759L82.12 580.919C82.84 581.399 83.44 581.999 83.92 582.719C84.3733 583.412 84.7067 584.185 84.92 585.039C85.1333 585.892 85.24 586.772 85.24 587.679ZM81.56 586.999C81.56 585.639 81.2267 584.519 80.56 583.639C79.8933 582.732 79.0133 582.052 77.92 581.599C76.8267 581.145 75.64 580.919 74.36 580.919C73.0533 580.919 71.88 581.145 70.84 581.599C69.7733 582.025 68.9333 582.692 68.32 583.599C67.68 584.479 67.36 585.612 67.36 586.999C67.36 588.439 67.6933 589.585 68.36 590.439C69 591.292 69.8667 591.919 70.96 592.319C72.0533 592.692 73.2533 592.879 74.56 592.879C75.52 592.879 76.4267 592.772 77.28 592.559C78.1067 592.345 78.8533 592.012 79.52 591.559C80.16 591.079 80.6667 590.465 81.04 589.719C81.3867 588.972 81.56 588.065 81.56 586.999ZM85.24 565.026C85.24 565.986 85.12 566.919 84.88 567.826C84.6133 568.706 84.2267 569.492 83.72 570.186C83.1867 570.879 82.5333 571.439 81.76 571.866C80.96 572.266 80.0267 572.466 78.96 572.466C77.68 572.466 76.6267 572.226 75.8 571.746C74.9467 571.239 74.2933 570.572 73.84 569.746C73.36 568.919 73.0267 567.972 72.84 566.906C72.6267 565.812 72.52 564.679 72.52 563.506V558.346C71.48 558.346 70.5733 558.506 69.8 558.826C69 559.146 68.3867 559.652 67.96 560.346C67.5067 561.012 67.28 561.906 67.28 563.026C67.28 563.692 67.36 564.332 67.52 564.946C67.6533 565.532 67.88 566.039 68.2 566.466C68.52 566.892 68.9467 567.186 69.48 567.346V571.666C68.4667 571.506 67.6 571.146 66.88 570.586C66.1333 570.026 65.52 569.332 65.04 568.506C64.56 567.679 64.2133 566.799 64 565.866C63.76 564.906 63.64 563.932 63.64 562.946C63.64 559.906 64.5333 557.719 66.32 556.386C68.08 555.026 70.5067 554.346 73.6 554.346H85V557.906L82.32 558.066C83.1467 558.679 83.7733 559.412 84.2 560.266C84.6267 561.092 84.9067 561.919 85.04 562.746C85.1733 563.572 85.24 564.332 85.24 565.026ZM81.76 564.386C81.76 563.186 81.56 562.132 81.16 561.226C80.7333 560.319 80.1333 559.612 79.36 559.106C78.56 558.599 77.6267 558.346 76.56 558.346H75.68V562.106C75.68 562.879 75.7067 563.639 75.76 564.386C75.7867 565.106 75.8933 565.772 76.08 566.386C76.24 566.972 76.52 567.452 76.92 567.826C77.32 568.172 77.8933 568.346 78.64 568.346C79.36 568.346 79.9467 568.159 80.4 567.786C80.8533 567.412 81.2 566.919 81.44 566.306C81.6533 565.692 81.76 565.052 81.76 564.386ZM85 549.402H63.92V545.482L66.88 545.282C66.1067 544.749 65.4933 544.109 65.04 543.362C64.56 542.615 64.2133 541.815 64 540.962C63.76 540.109 63.64 539.282 63.64 538.482C63.64 536.455 64.08 534.869 64.96 533.722C65.8133 532.549 66.9733 531.722 68.44 531.242C69.88 530.735 71.52 530.482 73.36 530.482H85V534.642H74.2C73.3467 534.642 72.5067 534.695 71.68 534.802C70.8533 534.909 70.12 535.135 69.48 535.482C68.8133 535.802 68.2933 536.269 67.92 536.882C67.52 537.495 67.32 538.322 67.32 539.362C67.32 540.642 67.6667 541.722 68.36 542.602C69.0533 543.482 69.9867 544.149 71.16 544.602C72.3333 545.055 73.6533 545.282 75.12 545.282H85V549.402ZM85 513.797H56.72V509.557H69.32V505.477L56.72 496.837V491.997L70.64 501.797L85 491.957V496.917L73.2 505.157V509.557H85V513.797ZM85 488.972H56.72V484.852H66.88C66.16 484.292 65.56 483.652 65.08 482.932C64.6 482.186 64.24 481.386 64 480.532C63.76 479.679 63.64 478.826 63.64 477.972C63.64 475.946 64.08 474.359 64.96 473.212C65.8133 472.066 66.9733 471.252 68.44 470.772C69.9067 470.292 71.56 470.052 73.4 470.052H85V474.212H74.36C73.5067 474.212 72.6667 474.279 71.84 474.412C71.0133 474.519 70.2667 474.732 69.6 475.052C68.9067 475.372 68.36 475.866 67.96 476.532C67.5333 477.172 67.32 478.039 67.32 479.132C67.32 480.172 67.5467 481.066 68 481.812C68.4533 482.532 69.0667 483.119 69.84 483.572C70.5867 483.999 71.4133 484.319 72.32 484.532C73.2 484.746 74.08 484.852 74.96 484.852H85V488.972ZM85.24 458.424C85.24 459.384 85.12 460.317 84.88 461.224C84.6133 462.104 84.2267 462.891 83.72 463.584C83.1867 464.277 82.5333 464.837 81.76 465.264C80.96 465.664 80.0267 465.864 78.96 465.864C77.68 465.864 76.6267 465.624 75.8 465.144C74.9467 464.637 74.2933 463.971 73.84 463.144C73.36 462.317 73.0267 461.371 72.84 460.304C72.6267 459.211 72.52 458.077 72.52 456.904V451.744C71.48 451.744 70.5733 451.904 69.8 452.224C69 452.544 68.3867 453.051 67.96 453.744C67.5067 454.411 67.28 455.304 67.28 456.424C67.28 457.091 67.36 457.731 67.52 458.344C67.6533 458.931 67.88 459.437 68.2 459.864C68.52 460.291 68.9467 460.584 69.48 460.744V465.064C68.4667 464.904 67.6 464.544 66.88 463.984C66.1333 463.424 65.52 462.731 65.04 461.904C64.56 461.077 64.2133 460.197 64 459.264C63.76 458.304 63.64 457.331 63.64 456.344C63.64 453.304 64.5333 451.117 66.32 449.784C68.08 448.424 70.5067 447.744 73.6 447.744H85V451.304L82.32 451.464C83.1467 452.077 83.7733 452.811 84.2 453.664C84.6267 454.491 84.9067 455.317 85.04 456.144C85.1733 456.971 85.24 457.731 85.24 458.424ZM81.76 457.784C81.76 456.584 81.56 455.531 81.16 454.624C80.7333 453.717 80.1333 453.011 79.36 452.504C78.56 451.997 77.6267 451.744 76.56 451.744H75.68V455.504C75.68 456.277 75.7067 457.037 75.76 457.784C75.7867 458.504 75.8933 459.171 76.08 459.784C76.24 460.371 76.52 460.851 76.92 461.224C77.32 461.571 77.8933 461.744 78.64 461.744C79.36 461.744 79.9467 461.557 80.4 461.184C80.8533 460.811 81.2 460.317 81.44 459.704C81.6533 459.091 81.76 458.451 81.76 457.784ZM85 442.8H63.92V438.92L66.4 438.68C65.7067 438.2 65.1733 437.667 64.8 437.08C64.4 436.467 64.1067 435.814 63.92 435.12C63.7333 434.427 63.64 433.72 63.64 433C63.64 431.587 63.9333 430.427 64.52 429.52C65.1067 428.587 65.9067 427.867 66.92 427.36C66.2 426.854 65.6 426.28 65.12 425.64C64.6133 425 64.24 424.294 64 423.52C63.76 422.747 63.64 421.92 63.64 421.04C63.64 419.467 63.9867 418.2 64.68 417.24C65.3467 416.254 66.2533 415.547 67.4 415.12C68.5467 414.667 69.8667 414.44 71.36 414.44H85V418.6H73C72.36 418.6 71.72 418.627 71.08 418.68C70.44 418.734 69.84 418.894 69.28 419.16C68.6933 419.4 68.2267 419.76 67.88 420.24C67.5067 420.694 67.32 421.347 67.32 422.2C67.32 423.027 67.5067 423.72 67.88 424.28C68.2533 424.814 68.76 425.254 69.4 425.6C70.0133 425.92 70.68 426.16 71.4 426.32C72.12 426.454 72.84 426.52 73.56 426.52H85V430.68H72.96C72.3467 430.68 71.72 430.707 71.08 430.76C70.44 430.814 69.84 430.947 69.28 431.16C68.6933 431.374 68.2267 431.734 67.88 432.24C67.5067 432.72 67.32 433.374 67.32 434.2C67.32 435.4 67.6667 436.334 68.36 437C69.0267 437.64 69.8533 438.08 70.84 438.32C71.8 438.56 72.72 438.68 73.6 438.68H85V442.8ZM85 409.597H63.92V405.477H85V409.597ZM61.12 407.557C61.12 408.357 60.88 409.011 60.4 409.517C59.8933 409.997 59.2533 410.237 58.48 410.237C57.7067 410.237 57.08 409.984 56.6 409.477C56.0933 408.971 55.84 408.331 55.84 407.557C55.84 406.837 56.0933 406.211 56.6 405.677C57.08 405.117 57.7067 404.837 58.48 404.837C59.2533 404.837 59.8933 405.104 60.4 405.637C60.88 406.144 61.12 406.784 61.12 407.557ZM85 391.498C85 393.152 84.7733 394.498 84.32 395.538C83.84 396.578 83.0933 397.352 82.08 397.858C81.0667 398.338 79.7467 398.578 78.12 398.578H67.6V401.898H63.92V398.578H57.84V394.458H63.92V389.138H67.6V394.458H77.6C78.8533 394.458 79.8 394.232 80.44 393.778C81.0533 393.325 81.36 392.378 81.36 390.938V389.298H85V391.498ZM85 385.613H56.72V381.493H72.68V378.093L63.92 372.173V367.533L73.96 374.453L85 366.933V371.773L76.32 377.773V381.493H85V385.613ZM85.24 357.565C85.24 358.525 85.12 359.458 84.88 360.365C84.6133 361.245 84.2267 362.031 83.72 362.725C83.1867 363.418 82.5333 363.978 81.76 364.405C80.96 364.805 80.0267 365.005 78.96 365.005C77.68 365.005 76.6267 364.765 75.8 364.285C74.9467 363.778 74.2933 363.111 73.84 362.285C73.36 361.458 73.0267 360.511 72.84 359.445C72.6267 358.351 72.52 357.218 72.52 356.045V350.885C71.48 350.885 70.5733 351.045 69.8 351.365C69 351.685 68.3867 352.191 67.96 352.885C67.5067 353.551 67.28 354.445 67.28 355.565C67.28 356.231 67.36 356.871 67.52 357.485C67.6533 358.071 67.88 358.578 68.2 359.005C68.52 359.431 68.9467 359.725 69.48 359.885V364.205C68.4667 364.045 67.6 363.685 66.88 363.125C66.1333 362.565 65.52 361.871 65.04 361.045C64.56 360.218 64.2133 359.338 64 358.405C63.76 357.445 63.64 356.471 63.64 355.485C63.64 352.445 64.5333 350.258 66.32 348.925C68.08 347.565 70.5067 346.885 73.6 346.885H85V350.445L82.32 350.605C83.1467 351.218 83.7733 351.951 84.2 352.805C84.6267 353.631 84.9067 354.458 85.04 355.285C85.1733 356.111 85.24 356.871 85.24 357.565ZM81.76 356.925C81.76 355.725 81.56 354.671 81.16 353.765C80.7333 352.858 80.1333 352.151 79.36 351.645C78.56 351.138 77.6267 350.885 76.56 350.885H75.68V354.645C75.68 355.418 75.7067 356.178 75.76 356.925C75.7867 357.645 75.8933 358.311 76.08 358.925C76.24 359.511 76.52 359.991 76.92 360.365C77.32 360.711 77.8933 360.885 78.64 360.885C79.36 360.885 79.9467 360.698 80.4 360.325C80.8533 359.951 81.2 359.458 81.44 358.845C81.6533 358.231 81.76 357.591 81.76 356.925ZM85 341.941H63.92V338.061L66.96 337.861C66.1333 337.328 65.48 336.714 65 336.021C64.52 335.328 64.1733 334.568 63.96 333.741C63.7467 332.914 63.64 332.048 63.64 331.141C63.64 330.901 63.64 330.674 63.64 330.461C63.64 330.248 63.64 330.048 63.64 329.861H67.6V331.141C67.6 332.661 67.9067 333.928 68.52 334.941C69.1333 335.928 69.9867 336.661 71.08 337.141C72.1733 337.594 73.4267 337.821 74.84 337.821H85V341.941Z" fill="#A6A09B"/>
<path d="M72 1L72 145.29L72 289.579" stroke="#BDBDBD" stroke-opacity="0.4" stroke-width="2" stroke-linecap="round"/>
</svg>
