<svg width="371" height="316" viewBox="0 0 371 316" fill="none" xmlns="http://www.w3.org/2000/svg">
<circle cx="206.677" cy="65.2258" r="1.50268" transform="rotate(-180 206.677 65.2258)" fill="#FF984D"/>
<circle cx="254.759" cy="53.2056" r="1.50268" transform="rotate(-180 254.759 53.2056)" fill="#FF984D" fill-opacity="0.6"/>
<circle cx="42.4553" cy="61.6045" r="1.50268" transform="rotate(-180 42.4553 61.6045)" fill="#FF984D"/>
<circle cx="18.1099" cy="208.906" r="2.2537" transform="rotate(-180 18.1099 208.906)" fill="#FF984D"/>
<circle cx="117.655" cy="236.314" r="2.2537" transform="rotate(-180 117.655 236.314)" fill="#FF984D"/>
<circle cx="155.339" cy="57.9633" r="2.2537" transform="rotate(-180 155.339 57.9633)" fill="#FF984D"/>
<circle cx="55.1684" cy="260.308" r="2.2537" transform="rotate(-180 55.1684 260.308)" fill="#FF984D" fill-opacity="0.6"/>
<circle cx="105.847" cy="217.377" r="2.2537" transform="rotate(-180 105.847 217.377)" fill="#FF984D"/>
<circle cx="54.8935" cy="112.487" r="2.2537" transform="rotate(-180 54.8935 112.487)" fill="#FF984D" fill-opacity="0.6"/>
<circle cx="12.0517" cy="82.6374" r="2.2537" transform="rotate(-180 12.0517 82.6374)" fill="#FF984D"/>
<circle cx="101.247" cy="15.8916" r="2.2537" transform="rotate(-180 101.247 15.8916)" fill="#FF984D" fill-opacity="0.7"/>
<circle cx="334.143" cy="294.867" r="0.751028" transform="rotate(-180 334.143 294.867)" fill="#FF984D"/>
<circle cx="265.862" cy="260.762" r="0.751028" transform="rotate(-180 265.862 260.762)" fill="#FF984D"/>
<circle cx="339.82" cy="201.965" r="0.751028" transform="rotate(-180 339.82 201.965)" fill="#FF984D" fill-opacity="0.6"/>
<circle cx="162.617" cy="135.029" r="0.751028" transform="rotate(-180 162.617 135.029)" fill="#FF984D"/>
<circle cx="327.614" cy="237.245" r="0.751028" transform="rotate(-180 327.614 237.245)" fill="#FF984D" fill-opacity="0.6"/>
<circle cx="112.677" cy="246.948" r="0.751028" transform="rotate(-180 112.677 246.948)" fill="#FF984D" fill-opacity="0.6"/>
<circle cx="90.2016" cy="42.0173" r="0.751028" transform="rotate(-180 90.2016 42.0173)" fill="#FF984D"/>
<circle cx="111.844" cy="169.352" r="0.751028" transform="rotate(-180 111.844 169.352)" fill="#FF984D" fill-opacity="0.6"/>
<circle cx="346.164" cy="92.5222" r="0.751028" transform="rotate(-180 346.164 92.5222)" fill="#FF984D"/>
<circle cx="246.633" cy="314.812" r="0.751028" transform="rotate(-180 246.633 314.812)" fill="#FF984D"/>
<circle cx="239.687" cy="117.049" r="0.751028" transform="rotate(-180 239.687 117.049)" fill="#FF984D" fill-opacity="0.7"/>
<circle cx="370.205" cy="146.614" r="0.751028" transform="rotate(-180 370.205 146.614)" fill="#FF984D"/>
<circle cx="21.6112" cy="152.624" r="0.751028" transform="rotate(-180 21.6112 152.624)" fill="#FF984D" fill-opacity="0.6"/>
<circle cx="65.2863" cy="197.232" r="0.751028" transform="rotate(-180 65.2863 197.232)" fill="#FF984D"/>
<circle cx="306.981" cy="17.7521" r="0.751028" transform="rotate(-180 306.981 17.7521)" fill="#FF984D" fill-opacity="0.6"/>
<circle cx="238.02" cy="205.275" r="0.751028" transform="rotate(-180 238.02 205.275)" fill="#FF984D"/>
<circle cx="77.7066" cy="62.4709" r="0.751028" transform="rotate(-180 77.7066 62.4709)" fill="#FF984D"/>
<circle cx="237.972" cy="102.324" r="0.751028" transform="rotate(-180 237.972 102.324)" fill="#FF984D" fill-opacity="0.6"/>
<circle cx="260.695" cy="111.373" r="0.751028" transform="rotate(-180 260.695 111.373)" fill="#FF984D"/>
<circle cx="17.6043" cy="128.583" r="0.751028" transform="rotate(-180 17.6043 128.583)" fill="#FF984D"/>
<circle cx="214.925" cy="3.19258" r="0.751028" transform="rotate(-180 214.925 3.19258)" fill="#FF984D" fill-opacity="0.6"/>
<circle cx="204.1" cy="54.9636" r="0.751028" transform="rotate(-180 204.1 54.9636)" fill="#FF984D" fill-opacity="0.6"/>
<circle cx="11.5941" cy="286.853" r="0.751028" transform="rotate(-180 11.5941 286.853)" fill="#FF984D"/>
<circle cx="61.0423" cy="7.95259" r="0.751028" transform="rotate(-180 61.0423 7.95259)" fill="#FF984D" fill-opacity="0.6"/>
<path d="M366.95 46.6946L365.648 44.4406L368.251 44.4406L366.95 46.6946Z" fill="#FF984D" fill-opacity="0.6"/>
<circle cx="103.751" cy="114.56" r="0.751028" transform="rotate(-180 103.751 114.56)" fill="#FF984D" fill-opacity="0.6"/>
<path d="M2.32862 40.6843L1.02727 38.4303L3.62998 38.4303L2.32862 40.6843Z" fill="#FF984D" fill-opacity="0.6"/>
<path d="M3.83998 3.68994L3.52121 2.50603L2.3373 2.18727L3.52121 1.8685L3.83998 0.684589L4.15874 1.8685L5.34265 2.18727L4.15874 2.50603L3.83998 3.68994Z" fill="#FF984D" fill-opacity="0.6"/>
<path d="M302.841 58.7151L302.522 57.5312L301.338 57.2124L302.522 56.8936L302.841 55.7097L303.159 56.8936L304.343 57.2124L303.159 57.5312L302.841 58.7151Z" fill="#FF984D" fill-opacity="0.6"/>
<path d="M189.049 122.679L188.73 121.495L187.546 121.177L188.73 120.858L189.049 119.674L189.368 120.858L190.552 121.177L189.368 121.495L189.049 122.679Z" fill="#FF984D" fill-opacity="0.6"/>
<path d="M260.769 12.6365L260.45 11.4526L259.266 11.1338L260.45 10.815L260.769 9.63112L261.088 10.815L262.271 11.1338L261.088 11.4526L260.769 12.6365Z" fill="#FE6A00" fill-opacity="0.8"/>
<path d="M239.981 230.156L239.663 228.972L238.479 228.653L239.663 228.335L239.981 227.151L240.3 228.335L241.484 228.653L240.3 228.972L239.981 230.156Z" fill="#FF984D"/>
<path d="M111.664 82.4353L111.345 81.2514L110.161 80.9326L111.345 80.6139L111.664 79.43L111.983 80.6139L113.167 80.9326L111.983 81.2514L111.664 82.4353Z" fill="#FF984D"/>
<circle cx="366.198" cy="100.536" r="0.751028" transform="rotate(-180 366.198 100.536)" fill="#FF984D"/>
</svg>
